<?xml version="1.0" encoding="utf-8"?>
<!DOCTYPE svg PUBLIC "-//W3C//DTD SVG 1.1//EN" "http://www.w3.org/Graphics/SVG/1.1/DTD/svg11.dtd">
<svg version="1.1" xmlns="http://www.w3.org/2000/svg" xmlns:xlink="http://www.w3.org/1999/xlink" x="0px" y="0px"
  viewBox="0 0 1000 1000" enable-background="new 0 0 1000 1000" xml:space="preserve">
  <g>
    <path
      d="M118.4,786.8c42.6-1.6,71.9-38.6,76.5-42.1c4.6-3.6,4.1,5.1,1.5,13.9c-2.6,8.7-19.6,55.4-72.4,70.9c-31.4,8.4-35.3,28.8-30.8,44.7c4.6,16.4,30,36.9,62,32.1c48.3-7.3,131.7-47,156.2-182c10.1-55.5,26.7-70.9,33.9-70.4c7.2,0.5,14.9,13.4,12.8,59.5c-2,46.2-2.1,139.2-47.2,199.8c-11.3,12.3-27.2,49.8,1,67.3c28.2,17.5,58.5,3.6,89.4-40c30.8-43.7,64.6-264.7,98.7-265l0,0c34,0.3,67.9,221.4,98.7,265c30.8,43.6,61.1,57.5,89.4,40c28.2-17.5,12.3-54.9,1-67.3c-45.2-60.6-45.2-153.5-47.3-199.8c-2.1-46.2,5.6-59,12.8-59.5c7.2-0.5,23.8,14.9,33.9,70.4c24.6,135,108,174.7,156.3,182c32,4.9,57.4-15.6,62-32.1c4.5-15.9,0.6-36.3-30.8-44.7c-52.9-15.4-69.9-62.2-72.4-70.9c-2.5-8.7-3.1-17.5,1.5-13.9c4.6,3.6,34,40.5,76.6,42.1c94.3,3.5,108.9-78,108.4-124.8c-0.5-46.7-35.5-78.1-58.5-93.4c-20.5-13.7-30.9-9.5-36.9,0.7c-2.6,4.3-5.2,20.7,3,27.5c9.4,7.8,34.4,26.7,33.9,53.4c-0.5,26.7-20,53.4-51.1,53.4c-59,0-124.3-127.5-119.5-137.2c20.7-34.9,86.8-51.7,84.6-68.1c-10.9-55.7-133.4-6.4-149.8-8.6c-6.7-0.9-7.6-12-7.6-12c-2.2-77.6,58.1-101.7,58.1-239.4c0-48.1-45.9-226.1-246-226.1l0,0c-200.1,0-246,178-246,226.1c0,137.7,60.2,161.9,58.1,239.4c0,0-0.9,11.1-7.7,12c-16.4,2.2-138.9-47.1-149.8,8.6c-2.2,16.4,63.8,33.1,84.6,68.1c4.8,9.7-60.5,137.2-119.5,137.2c-31.1,0-50.6-26.8-51.1-53.4c-0.5-26.7,24.5-45.6,33.9-53.4c8.2-6.8,5.6-23.3,3-27.5c-6.1-10.2-16.4-14.4-36.9-0.7c-23,15.3-58,46.7-58.5,93.4C9.5,708.8,24,790.3,118.4,786.8z" />
  </g>
</svg>
